<?xml version="1.0" encoding="utf-8"?>
<!-- Generator: Adobe Illustrator 19.2.0, SVG Export Plug-In . SVG Version: 6.00 Build 0)  -->
<svg version="1.1" id="Layer_1" xmlns="http://www.w3.org/2000/svg" xmlns:xlink="http://www.w3.org/1999/xlink" x="0px" y="0px"
	 viewBox="0 0 256 256" style="enable-background:new 0 0 256 256;" xml:space="preserve">
<style type="text/css">
	.st0{fill:#FFFFFF;}
</style>
<path class="st0" d="M256,144l0-32l-44.1,0L132,191.9c-12.7,0.8-25.5-2.2-36.5-8.7L229.8,48.8l-22.6-22.6l-23.6,23.6
	c-11.6-8.2-25-14-39.6-16.4L144,0l-32,0l0,33.3c-14.6,2.4-28.1,8.2-39.6,16.4L48.8,26.2L26.2,48.8l23.6,23.6
	c-8.2,11.6-14,25-16.4,39.6L0,112l0,32l44.1,0L124,64.1c12.7-0.8,25.5,2.2,36.5,8.7L26.2,207.2l22.6,22.6l23.6-23.6
	c11.6,8.2,25,14,39.6,16.4l0,33.3l32,0l0-33.3c14.6-2.4,28.1-8.2,39.6-16.4l23.6,23.6l22.6-22.6l-23.6-23.6
	c8.2-11.6,14-25,16.4-39.6L256,144z"/>
</svg>
